PathFileType	4	(X/Y/Z)	C:/Users/opensim2020/Desktop/walking_exp_matlab/subject01_walking11_straight_01.trc	
DataRate	CameraRate	NumFrames	NumMarkers	Units	OrigDataRate	OrigDataStartFrame	OrigNumFrames	
100.00	100.00	5	44	mm	100.00	910	374	
Frame#	Time	LFHD			RFHD			LBHD			RBHD			C7			T10			CLAV			STRN			RBAK			LSHO			LUPA			LELB			LFRM			LWRA			LWRB			LFIN			RSHO			RUPA			RELB			RFRM			RWRA			RWRB			RFIN			LASI			RASI			LPSI			RPSI			LTHI			LKNE			LTIB			LANK			LHEE			LTOE			RTHI			RKNE			RTIB			RANK			RHEE			RTOE			*39			*40			*41			*42			*43			
		X1	Y1	Z1	X2	Y2	Z2	X3	Y3	Z3	X4	Y4	Z4	X5	Y5	Z5	X6	Y6	Z6	X7	Y7	Z7	X8	Y8	Z8	X9	Y9	Z9	X10	Y10	Z10	X11	Y11	Z11	X12	Y12	Z12	X13	Y13	Z13	X14	Y14	Z14	X15	Y15	Z15	X16	Y16	Z16	X17	Y17	Z17	X18	Y18	Z18	X19	Y19	Z19	X20	Y20	Z20	X21	Y21	Z21	X22	Y22	Z22	X23	Y23	Z23	X24	Y24	Z24	X25	Y25	Z25	X26	Y26	Z26	X27	Y27	Z27	X28	Y28	Z28	X29	Y29	Z29	X30	Y30	Z30	X31	Y31	Z31	X32	Y32	Z32	X33	Y33	Z33	X34	Y34	Z34	X35	Y35	Z35	X36	Y36	Z36	X37	Y37	Z37	X38	Y38	Z38	X39	Y39	Z39	X40	Y40	Z40	X41	Y41	Z41	X42	Y42	Z42	X43	Y43	Z43	X44	Y44	Z44	

1	0.000	1415.82361	-1246.36792	1663.54272	1527.13354	-1220.89905	1674.84412	1437.33569	-1348.13025	1594.53015	1555.67004	-1324.30042	1604.84436	1452.89917	-1348.06287	1423.27588	1437.18091	-1402.90649	1135.80200	1473.23804	-1210.77686	1347.82507	1468.85535	-1180.44336	1187.88306	1509.96631	-1429.51733	1235.19958	1306.88684	-1240.19299	1388.48804	1210.36267	-1271.48499	1209.44421	1203.02100	-1302.41492	1063.34802	1176.03381	-1278.33008	952.78162	1196.79761	-1224.78699	824.72644	1163.59070	-1273.85059	830.50592	1157.13989	-1236.63232	754.43530	1611.41418	-1297.75610	1374.74146	1701.67603	-1365.85779	1174.09741	1706.07605	-1356.63904	1048.23535	1739.81958	-1313.01721	936.42603	1735.38501	-1210.47314	839.14795	1765.14490	-1259.75476	829.17847	1769.80249	-1206.61084	761.32483	1354.17896	-1224.16260	923.66736	1567.44263	-1267.30725	911.38470	1365.53125	-1414.86230	944.42865	1507.52185	-1445.07581	943.53632	1283.81604	-1187.73877	604.28717	1308.11389	-1166.64038	474.78802	1301.34607	-1157.16638	289.37784	1359.43884	-1104.85803	75.70830	1415.15723	-1137.36633	34.83628	1356.15857	-956.01147	84.46859	1600.16064	-1364.92261	584.80023	1575.95935	-1363.80139	426.52551	1561.03748	-1448.71265	270.81421	1496.23401	-1496.82019	73.02602	1434.06226	-1529.36914	37.00650	1547.90686	-1370.40649	27.46490	1506.39880	-1242.55005	1704.37085	-3101.89600	1973.11084	1023.52289	-3140.65161	2012.52075	1022.05902						 
2	0.010	1415.47363	-1240.68774	1662.89355	1526.64490	-1215.20923	1674.27905	1437.12024	-1342.68762	1593.97400	1555.42688	-1318.51990	1604.26184	1453.05225	-1342.51685	1422.60327	1437.72864	-1397.31677	1135.08264	1472.83948	-1205.09644	1347.24268	1468.64221	-1174.79041	1187.25110	1510.54761	-1423.69543	1234.47705	1306.67322	-1235.17395	1387.71802	1210.46326	-1266.82288	1208.54431	1203.52856	-1297.99719	1062.55713	1176.34375	-1274.46228	951.91522	1196.81714	-1221.42407	823.66675	1163.83691	-1270.72375	829.81476	1157.31921	-1233.74792	753.33252	1611.43237	-1291.57263	1374.07166	1701.86523	-1359.22974	1173.40405	1706.17957	-1349.40027	1047.63757	1740.15381	-1305.27893	935.94391	1735.40552	-1202.45911	838.95959	1765.29810	-1251.57214	828.76648	1769.99829	-1198.44714	761.30902	1354.71399	-1218.65735	922.78943	1568.19458	-1261.30408	910.88275	1366.29700	-1409.40210	943.60577	1508.36987	-1439.46619	943.10010	1284.68066	-1182.19482	603.53778	1308.74084	-1161.32373	474.29550	1301.33215	-1150.38916	289.06375	1359.16614	-1095.51831	75.72759	1414.79688	-1127.36853	34.10598	1355.86853	-946.64899	85.71199	1601.06213	-1361.10437	584.88190	1576.79797	-1361.06055	426.11725	1561.45850	-1447.10254	271.07571	1498.24133	-1494.65442	73.71634	1434.67139	-1529.54858	37.93641	1548.12183	-1370.45923	27.52640	1505.95569	-1236.90698	1703.74524	-3101.96582	1973.08777	1023.96484	-3140.80176	2012.51086	1022.07800						 
3	0.020	1414.97510	-1235.15674	1662.31934	1526.15222	-1209.49792	1673.71045	1436.80920	-1337.10254	1593.35852	1555.07690	-1312.74524	1603.70459	1453.13806	-1337.06775	1422.13953	1438.13489	-1391.58887	1134.34290	1472.42810	-1199.34399	1346.58972	1468.29688	-1169.07312	1186.65369	1510.91541	-1417.82922	1233.80042	1306.31763	-1230.14368	1386.87793	1210.44995	-1262.06433	1207.62317	1203.72632	-1293.57751	1061.65369	1176.64282	-1270.38171	950.99780	1196.87366	-1217.87427	822.52692	1163.99829	-1267.10657	828.73566	1157.45691	-1230.63049	752.25909	1611.31250	-1285.42761	1373.56091	1701.93738	-1352.57251	1172.67786	1706.75281	-1342.42102	1047.07593	1740.33887	-1297.70190	935.49152	1735.24438	-1194.55823	838.83514	1765.31714	-1243.62695	828.56146	1769.64465	-1189.93274	760.94385	1355.17163	-1212.94238	921.99274	1568.30066	-1257.19666	910.34625	1366.89612	-1403.75342	942.73163	1509.02344	-1433.49731	942.50836	1285.49634	-1176.27380	602.90869	1309.36829	-1155.53687	473.90930	1301.38611	-1143.79431	288.67215	1358.70728	-1087.64954	75.63427	1414.40137	-1119.06897	33.71363	1355.49231	-938.61957	86.16097	1601.46045	-1356.83875	584.58875	1577.17090	-1358.31543	426.12000	1561.95544	-1445.39453	271.52585	1498.72424	-1494.62146	74.54372	1435.26477	-1529.61230	39.26642	1548.22144	-1370.37012	27.32421	1505.49744	-1231.19580	1703.21594	-3101.90186	1973.11218	1023.64349	-3140.72559	2012.62061	1022.12939						 
4	0.030	1414.36487	-1229.57764	1661.69495	1525.48767	-1203.75952	1673.13464	1436.37988	-1331.55664	1592.76892	1554.58325	-1306.94238	1603.13391	1452.98657	-1331.40442	1421.43835	1438.45813	-1385.81885	1133.55200	1471.92151	-1193.60107	1346.02722	1467.85461	-1163.31506	1186.04236	1511.19482	-1411.86963	1233.05383	1305.81616	-1225.04492	1386.13916	1210.36902	-1257.19519	1206.74817	1204.24597	-1288.30920	1060.92542	1176.85510	-1266.21570	950.11682	1196.93530	-1214.02625	821.45618	1164.20251	-1263.44214	827.90173	1157.55420	-1227.20557	751.13336	1611.16736	-1279.33472	1373.11487	1701.89270	-1345.90552	1172.02295	1706.78308	-1335.26135	1046.37317	1740.35303	-1290.15295	934.97321	1734.94641	-1186.75745	838.62195	1765.21277	-1235.65881	828.22931	1769.43298	-1181.80493	760.79602	1355.47473	-1207.25000	921.21741	1568.68323	-1251.10059	909.79846	1367.40625	-1397.99866	941.94458	1509.61438	-1427.50647	941.91211	1286.48059	-1169.99719	602.52563	1309.86340	-1149.43481	473.68625	1301.33948	-1137.39380	288.27023	1358.54761	-1080.58325	75.02885	1414.29138	-1111.93921	32.85974	1355.06763	-931.77802	85.72151	1601.92017	-1352.37903	584.37231	1577.77405	-1355.25842	425.82974	1562.32166	-1443.58215	271.85229	1497.54419	-1496.47803	75.35987	1435.97717	-1529.43750	40.15054	1548.20557	-1370.42554	27.37130	1504.84949	-1225.48828	1702.62573	-3101.93066	1973.05151	1023.40771	-3140.72510	2012.48376	1022.03217						 
5	0.040	1413.64075	-1224.09033	1661.12708	1524.69849	-1197.96680	1672.54395	1435.83264	-1325.81116	1592.09485	1554.00256	-1301.12964	1602.56995	1452.76636	-1325.61047	1420.65405	1438.68164	-1379.93359	1132.82275	1471.26355	-1187.79968	1345.44385	1467.36133	-1157.30774	1185.51685	1511.31763	-1405.87476	1232.35864	1305.23389	-1219.94775	1385.32300	1210.10901	-1252.27881	1205.77344	1204.21985	-1283.85413	1059.95154	1176.92358	-1261.74658	949.16907	1196.94775	-1210.01428	820.33038	1164.38379	-1259.47046	826.93109	1157.60217	-1223.58325	750.05951	1610.79846	-1273.05920	1372.56873	1701.75391	-1339.18018	1171.31116	1706.79065	-1328.29004	1045.83008	1740.23450	-1282.65833	934.47778	1734.46838	-1179.02417	838.44354	1764.93262	-1227.82678	827.92474	1768.94495	-1173.75684	760.67865	1355.71143	-1201.33301	920.43085	1569.14600	-1244.84998	909.22308	1367.81653	-1392.04639	941.16602	1510.00720	-1421.29590	941.31195	1287.48938	-1163.35901	602.22162	1310.45532	-1143.00183	473.46826	1301.40613	-1131.29944	287.67285	1358.24915	-1075.00464	74.45299	1414.15723	-1106.26794	32.21545	1354.79407	-926.08313	84.70295	1602.40820	-1347.73315	584.12720	1578.09558	-1351.85083	425.42325	1562.76306	-1441.49548	272.31818	1498.07202	-1496.26331	76.27872	1436.43823	-1530.09204	41.46729	1548.50500	-1370.46362	27.41317	1504.11865	-1219.73328	1702.05298	-3102.07104	1973.00049	1023.90771	-3140.59937	2012.62842	1022.20026						 
